HIERARCHY
ROOT Hips
{
	OFFSET -0.001795 -0.223333 0.028219
	CHANNELS 6 Xposition Yposition Zposition Zrotation Yrotation Xrotation 
	JOINT LeftUpLeg
	{
		OFFSET 0.069520 -0.091406 -0.006815
		CHANNELS 3 Zrotation Yrotation Xrotation
		JOINT LeftLeg
		{
			OFFSET 0.034277 -0.375199 -0.004496
			CHANNELS 3 Zrotation Yrotation Xrotation
			JOINT LeftFoot
			{
				OFFSET -0.013596 -0.397961 -0.043693
				CHANNELS 3 Zrotation Yrotation Xrotation
				JOINT LeftToe
				{
					OFFSET 0.026358 -0.055791 0.119288
					CHANNELS 3 Zrotation Yrotation Xrotation
					End Site
					{
						OFFSET 0.000000 0.000000 0.000000
					}
				}
			}
		}
	}
	JOINT RightUpLeg
	{
		OFFSET -0.067670 -0.090522 -0.004320
		CHANNELS 3 Zrotation Yrotation Xrotation
		JOINT RightLeg
		{
			OFFSET -0.038290 -0.382569 -0.008850
			CHANNELS 3 Zrotation Yrotation Xrotation
			JOINT RightFoot
			{
				OFFSET 0.015774 -0.398415 -0.042312
				CHANNELS 3 Zrotation Yrotation Xrotation
				JOINT RightToe
				{
					OFFSET -0.025372 -0.048144 0.123348
					CHANNELS 3 Zrotation Yrotation Xrotation
					End Site
					{
						OFFSET 0.000000 0.000000 0.000000
					}
				}
			}
		}
	}
	JOINT Spine
	{
		OFFSET -0.002533 0.108963 -0.026696
		CHANNELS 3 Zrotation Yrotation Xrotation
		JOINT Spine1
		{
			OFFSET 0.005487 0.135180 0.001092
			CHANNELS 3 Zrotation Yrotation Xrotation
			JOINT Spine2
			{
				OFFSET 0.001457 0.052922 0.025425
				CHANNELS 3 Zrotation Yrotation Xrotation
				JOINT Neck
				{
					OFFSET -0.002778 0.213870 -0.042857
					CHANNELS 3 Zrotation Yrotation Xrotation
					JOINT Head
					{
						OFFSET 0.005152 0.064970 0.051349
						CHANNELS 3 Zrotation Yrotation Xrotation
						End Site
						{
							OFFSET 0.000000 0.000000 0.000000
						}
					}
				}
				JOINT LeftShoulder
				{
					OFFSET 0.078845 0.121749 -0.034090
					CHANNELS 3 Zrotation Yrotation Xrotation
					JOINT LeftArm
					{
						OFFSET 0.090977 0.030469 -0.008868
						CHANNELS 3 Zrotation Yrotation Xrotation
						JOINT LeftForeArm
						{
							OFFSET 0.259612 -0.012772 -0.027456
							CHANNELS 3 Zrotation Yrotation Xrotation
							JOINT LeftHand
							{
								OFFSET 0.249234 0.008986 -0.001171
								CHANNELS 3 Zrotation Yrotation Xrotation
								End Site
								{
									OFFSET 0.000000 0.000000 0.000000
								}
							}
						}
					}
				}
				JOINT RightShoulder
				{
					OFFSET -0.081759 0.118833 -0.038615
					CHANNELS 3 Zrotation Yrotation Xrotation
					JOINT RightArm
					{
						OFFSET -0.096012 0.032551 -0.009143
						CHANNELS 3 Zrotation Yrotation Xrotation
						JOINT RightForeArm
						{
							OFFSET -0.253742 -0.013329 -0.021401
							CHANNELS 3 Zrotation Yrotation Xrotation
							JOINT RightHand
							{
								OFFSET -0.255298 0.007772 -0.005559
								CHANNELS 3 Zrotation Yrotation Xrotation
								End Site
								{
									OFFSET 0.000000 0.000000 0.000000
								}
							}
						}
					}
				}
			}
		}
	}
}
MOTION
Frames: 12
Frame Time: 0.050000
0.000000 0.960319 0.000000 -0.198728 -4.959591 6.063876 1.089199 -0.067825 -0.530200 -0.745582 0.147412 -2.251897 4.584247 11.368827 10.689949 0.000000 0.000000 0.000000 1.319595 0.975905 -9.224311 2.339767 -0.113460 4.423777 -3.536421 -10.783542 6.052047 0.000000 0.000000 0.000000 6.671463 -0.416436 2.464874 -4.129370 1.508858 -22.474592 -2.752276 5.921290 26.401557 8.370961 -3.134719 -23.574610 0.000000 0.000000 0.000000 -1.267720 -8.979906 3.100452 -63.459216 -11.244744 -4.037310 -2.780548 -22.846894 1.597508 0.000000 0.000000 0.000000 10.433204 -4.898819 -2.459857 69.007327 1.585061 -7.875312 1.593877 25.168039 1.736091 0.000000 0.000000 0.000000 
-0.004440 0.958870 0.009843 -0.585067 -5.511283 6.632990 1.764850 -0.094201 -0.749927 -1.382895 0.188546 -1.191996 5.803804 13.129299 8.143455 0.000000 0.000000 0.000000 1.849685 1.013092 -9.393674 1.852709 -0.035963 4.729935 -3.474413 -10.527737 5.483530 0.000000 0.000000 0.000000 7.474897 -0.427682 2.135220 -4.569046 1.601208 -22.930453 -2.532304 5.867415 26.143662 7.036279 -2.383285 -23.483868 0.000000 0.000000 0.000000 0.134706 -8.165078 2.809940 -65.293867 -10.240303 -4.568426 -4.037705 -23.466793 1.935371 0.000000 0.000000 0.000000 10.323037 -5.423567 -2.757001 70.014009 -1.247704 -9.701395 2.156028 27.138256 2.022100 0.000000 0.000000 0.000000 
-0.009341 0.957561 0.019857 -0.047189 -5.698174 5.925717 2.451984 -0.150842 -1.515373 -3.142462 0.375051 2.876957 5.614591 12.700573 7.187167 0.000000 0.000000 0.000000 1.933080 0.792251 -7.566584 1.534940 -0.021798 3.877596 -3.056527 -9.334137 4.590732 0.000000 0.000000 0.000000 7.035405 -0.510989 3.297970 -4.185323 1.503477 -24.015799 -3.001969 6.173746 27.221491 7.605579 -2.591485 -24.501440 0.000000 0.000000 0.000000 0.284044 -7.523595 2.588113 -65.455637 -9.719948 -5.035479 -5.346948 -23.464953 2.214087 0.000000 0.000000 0.000000 10.416506 -5.612481 -2.808108 69.739097 -1.115379 -9.697216 2.848644 26.934446 2.189022 0.000000 0.000000 0.000000 
-0.014271 0.957392 0.029489 -0.050028 -6.281471 6.383325 3.428087 -0.337295 -4.587237 -4.497645 0.702822 9.367809 6.072420 13.384666 5.935612 0.000000 0.000000 0.000000 1.932715 0.787280 -7.567514 2.143301 -0.102459 3.496941 -3.130366 -9.223005 3.733253 0.000000 0.000000 0.000000 7.360707 -0.518535 3.134871 -4.668295 1.608178 -24.077857 -2.694600 6.884704 27.247241 6.528823 -2.088875 -22.960472 0.000000 0.000000 0.000000 1.657887 -6.903254 2.372299 -67.043291 -9.062336 -5.556133 -5.654208 -23.918618 2.331960 0.000000 0.000000 0.000000 9.917968 -5.515831 -2.686205 70.112565 -1.881558 -10.139063 2.967955 27.587613 2.299149 0.000000 0.000000 0.000000 
-0.018278 0.957430 0.038424 -0.311565 -6.402268 6.241342 5.417513 -0.439062 -8.990121 -6.930124 1.693868 18.292992 6.753792 14.636814 6.680972 0.000000 0.000000 0.000000 2.422714 0.776875 -7.405298 1.785794 -0.010687 5.029319 -3.232901 -8.785192 1.894199 0.000000 0.000000 0.000000 8.042779 -0.625754 3.857372 -4.764589 1.629063 -23.974487 -2.354858 7.800074 27.135934 5.710563 -1.479416 -22.615974 0.000000 0.000000 0.000000 1.070945 -6.773685 2.325065 -66.505447 -7.461332 -6.634522 -6.377432 -25.149740 2.592233 0.000000 0.000000 0.000000 8.900240 -5.831825 -2.667419 69.696685 -2.051026 -10.010581 5.027099 27.006309 2.720333 0.000000 0.000000 0.000000 
-0.020962 0.956993 0.047410 0.230939 -6.150038 6.367765 6.005297 -0.559980 -14.959379 -9.130369 3.097702 27.212017 7.811187 16.499831 6.607448 0.000000 0.000000 0.000000 1.514442 0.815133 -7.876003 2.548756 -0.068096 6.732892 -3.092907 -8.111424 0.982672 0.000000 0.000000 0.000000 7.854321 -0.701173 4.609131 -4.413919 1.549960 -24.006776 -2.107697 8.290239 27.002808 4.688781 -0.649813 -23.237560 0.000000 0.000000 0.000000 0.153030 -6.107749 2.075571 -66.509453 -6.568826 -7.251600 -7.263716 -26.613892 2.944780 0.000000 0.000000 0.000000 7.908737 -5.645785 -2.463679 69.047901 -2.242054 -9.851546 6.564558 26.457430 2.990236 0.000000 0.000000 0.000000 
-0.022405 0.956918 0.057453 0.730013 -6.510997 5.681637 6.678022 -0.518092 -20.311265 -11.752791 4.995853 33.895678 9.267305 18.968789 7.597521 0.000000 0.000000 0.000000 1.245172 0.681145 -6.767872 1.914388 0.060210 7.656027 -2.721176 -7.029854 0.563069 0.000000 0.000000 0.000000 7.427781 -0.818349 6.232846 -4.483519 1.566368 -24.503718 -1.256329 9.344760 27.179186 4.932173 -0.595303 -23.744663 0.000000 0.000000 0.000000 -0.380600 -5.761755 1.921125 -66.951242 -5.455865 -8.120352 -8.781909 -28.334218 3.511604 0.000000 0.000000 0.000000 6.779780 -5.194184 -2.139150 68.941303 -1.005427 -8.916369 7.213374 26.052234 3.103112 0.000000 0.000000 0.000000 
-0.023286 0.956791 0.069213 1.604448 -5.713267 5.669642 5.922291 -0.768852 -25.707774 -12.181041 5.481339 37.359181 9.532372 19.421771 7.843053 0.000000 0.000000 0.000000 0.610907 0.604333 -6.120316 1.666511 0.105177 8.106207 -2.770498 -6.632608 -0.642090 0.000000 0.000000 0.000000 6.661841 -0.829515 6.945448 -4.684453 1.623864 -24.810528 -0.854476 9.932097 27.713902 5.630222 -0.792623 -24.209617 0.000000 0.000000 0.000000 -0.251839 -6.583689 2.184501 -66.658805 -4.940882 -8.651819 -10.773979 -28.703810 4.007038 0.000000 0.000000 0.000000 6.499115 -5.346327 -2.116655 68.843544 -0.054020 -8.165452 7.771014 26.732678 3.395525 0.000000 0.000000 0.000000 
-0.023866 0.956673 0.083391 1.965221 -5.663239 5.558638 6.586071 -0.643803 -30.274016 -13.356830 6.105213 37.994976 9.539496 19.414351 7.690617 0.000000 0.000000 0.000000 0.445785 0.469425 -4.856393 1.132695 0.197838 8.284865 -2.691659 -5.948611 -1.685004 0.000000 0.000000 0.000000 6.107221 -0.880912 8.096058 -4.666673 1.621513 -24.963853 -0.582238 11.089352 27.590519 6.125094 -0.853565 -24.432829 0.000000 0.000000 0.000000 -0.556006 -6.375238 2.062435 -66.074582 -4.467650 -9.039888 -12.280296 -29.455580 4.424850 0.000000 0.000000 0.000000 6.267499 -5.524830 -2.114693 68.575011 0.766060 -7.395129 8.360945 27.867838 3.781691 0.000000 0.000000 0.000000 
-0.024099 0.955043 0.100754 2.397762 -5.513217 5.254772 6.840041 -0.585997 -33.497234 -13.775591 5.826137 35.142095 9.878879 19.923216 8.800947 0.000000 0.000000 0.000000 -0.154787 0.301216 -3.114214 0.606488 0.259366 7.792688 -2.413793 -5.091791 -1.965637 0.000000 0.000000 0.000000 5.414127 -0.906068 9.300552 -4.789974 1.654291 -25.065291 0.077925 11.946340 27.483945 6.776618 -1.016078 -24.906138 0.000000 0.000000 0.000000 -0.685259 -6.739443 2.146385 -65.845744 -3.797190 -9.534935 -13.905776 -28.775576 4.656039 0.000000 0.000000 0.000000 5.872219 -5.496495 -2.046222 68.409320 1.685216 -6.595734 8.972402 29.118602 4.201664 0.000000 0.000000 0.000000 
-0.023786 0.952458 0.121589 2.603757 -5.989547 5.566433 6.991876 -0.471255 -35.485745 -13.712081 5.127027 29.998568 10.152367 20.284941 9.567040 0.000000 0.000000 0.000000 -0.235363 0.126560 -1.270788 0.023943 0.296528 6.603305 -2.258917 -4.507018 -2.247326 0.000000 0.000000 0.000000 5.095220 -0.907539 9.759059 -4.991134 1.695778 -24.955783 0.031896 12.943648 27.113023 6.979453 -0.938180 -25.352612 0.000000 0.000000 0.000000 0.201648 -6.453912 2.095481 -66.242970 -2.848607 -10.251599 -15.758837 -28.704058 5.056037 0.000000 0.000000 0.000000 4.894468 -4.904428 -1.763185 69.155175 3.089602 -5.480358 9.081870 30.020602 4.429332 0.000000 0.000000 0.000000 
-0.022593 0.948123 0.146105 2.563252 -6.869850 5.662366 7.040943 -0.324405 -36.498864 -12.525126 3.985476 23.998723 10.331954 20.361942 12.022684 0.000000 0.000000 0.000000 -0.934787 -0.013925 0.686236 0.315878 0.223870 5.892773 -2.284364 -4.277252 -2.686875 0.000000 0.000000 0.000000 4.497188 -0.883471 10.462359 -4.853437 1.648953 -25.259615 0.437074 14.151530 27.096892 7.462758 -0.878642 -26.935992 0.000000 0.000000 0.000000 1.504591 -5.735593 1.965577 -66.836613 -2.033713 -11.025841 -17.911649 -27.787870 5.374294 0.000000 0.000000 0.000000 3.702639 -4.549888 -1.615638 69.081864 4.418531 -4.394838 10.153670 31.181762 4.964800 0.000000 0.000000 0.000000 
